<svg xmlns="http://www.w3.org/2000/svg" width="40" height="40" viewBox="0 0 40 40">
  <defs>
    <linearGradient id="kmpAioFrameDark" x1="4" y1="4" x2="36" y2="36" gradientUnits="userSpaceOnUse">
      <stop offset="0" stop-color="#7DFFBF"/>
      <stop offset="0.56" stop-color="#78C2FF"/>
      <stop offset="1" stop-color="#8C7BFF"/>
    </linearGradient>
    <linearGradient id="cubeTopDark" x1="8" y1="11" x2="31" y2="11" gradientUnits="userSpaceOnUse">
      <stop offset="0" stop-color="#61F0A7"/>
      <stop offset="1" stop-color="#63DCE4"/>
    </linearGradient>
    <linearGradient id="cubeRightDark" x1="29" y1="10" x2="29" y2="31" gradientUnits="userSpaceOnUse">
      <stop offset="0" stop-color="#76BBFF"/>
      <stop offset="1" stop-color="#6884FF"/>
    </linearGradient>
    <linearGradient id="cubeLeftDark" x1="10" y1="12" x2="10" y2="30" gradientUnits="userSpaceOnUse">
      <stop offset="0" stop-color="#39D88F"/>
      <stop offset="1" stop-color="#184050"/>
    </linearGradient>
    <linearGradient id="coreDark" x1="15" y1="15" x2="24.5" y2="24.5" gradientUnits="userSpaceOnUse">
      <stop offset="0" stop-color="#F4FBFF"/>
      <stop offset="1" stop-color="#CAE6FA"/>
    </linearGradient>
    <linearGradient id="shadowDark" x1="12" y1="25" x2="27" y2="33" gradientUnits="userSpaceOnUse">
      <stop offset="0" stop-color="#071723" stop-opacity=".92"/>
      <stop offset="1" stop-color="#163448" stop-opacity=".24"/>
    </linearGradient>
  </defs>
  <rect x="2" y="2" width="36" height="36" rx="8" fill="#1A2F56"/>
  <rect x="2" y="2" width="36" height="36" rx="8" fill="url(#kmpAioFrameDark)" opacity=".14"/>
  <rect x="2" y="2" width="36" height="36" rx="8" fill="none" stroke="url(#kmpAioFrameDark)" stroke-width="2"/>
  <rect x="5" y="5" width="30" height="30" rx="6.5" fill="#264574"/>
  <path d="M8.2 26.8 20 33.4 31.8 26.8 20 20.2Z" fill="url(#shadowDark)" opacity=".72"/>
  <path d="M20 8 31.5 14.8 20 21.6 8.5 14.8Z" fill="url(#cubeTopDark)"/>
  <path d="M8.5 14.8V27.5L20 34V21.6Z" fill="url(#cubeLeftDark)"/>
  <path d="M31.5 14.8V27.5L20 34V21.6Z" fill="url(#cubeRightDark)"/>
  <path d="M20 14.5 26 18 20 21.5 14 18Z" fill="url(#coreDark)"/>
  <path d="M14 18v6.8l6 3.5v-6.8Z" fill="#B1DBF6"/>
  <path d="M26 18v6.8l-6 3.5v-6.8Z" fill="#D8F1FF"/>
</svg>
