<svg xmlns="http://www.w3.org/2000/svg" width="40" height="40" viewBox="0 0 40 40">
  <defs>
    <linearGradient id="kmpAioFrame" x1="4" y1="4" x2="36" y2="36" gradientUnits="userSpaceOnUse">
      <stop offset="0" stop-color="#4DF3A6"/>
      <stop offset="0.56" stop-color="#59A0FF"/>
      <stop offset="1" stop-color="#6E59FF"/>
    </linearGradient>
    <linearGradient id="cubeTop" x1="8" y1="11" x2="31" y2="11" gradientUnits="userSpaceOnUse">
      <stop offset="0" stop-color="#45E58E"/>
      <stop offset="1" stop-color="#4FC7C6"/>
    </linearGradient>
    <linearGradient id="cubeRight" x1="29" y1="10" x2="29" y2="31" gradientUnits="userSpaceOnUse">
      <stop offset="0" stop-color="#58A0FF"/>
      <stop offset="1" stop-color="#5572FF"/>
    </linearGradient>
    <linearGradient id="cubeLeft" x1="10" y1="12" x2="10" y2="30" gradientUnits="userSpaceOnUse">
      <stop offset="0" stop-color="#2ECF85"/>
      <stop offset="1" stop-color="#123847"/>
    </linearGradient>
    <linearGradient id="core" x1="15" y1="15" x2="24.5" y2="24.5" gradientUnits="userSpaceOnUse">
      <stop offset="0" stop-color="#EBF7FF"/>
      <stop offset="1" stop-color="#B8D8F1"/>
    </linearGradient>
    <linearGradient id="shadow" x1="12" y1="25" x2="27" y2="33" gradientUnits="userSpaceOnUse">
      <stop offset="0" stop-color="#071723" stop-opacity=".9"/>
      <stop offset="1" stop-color="#163448" stop-opacity=".2"/>
    </linearGradient>
  </defs>
  <rect x="2" y="2" width="36" height="36" rx="8" fill="#1D3359"/>
  <rect x="2" y="2" width="36" height="36" rx="8" fill="url(#kmpAioFrame)" opacity=".12"/>
  <rect x="2" y="2" width="36" height="36" rx="8" fill="none" stroke="url(#kmpAioFrame)" stroke-width="2"/>
  <rect x="5" y="5" width="30" height="30" rx="6.5" fill="#243C69"/>
  <path d="M8.2 26.8 20 33.4 31.8 26.8 20 20.2Z" fill="url(#shadow)" opacity=".7"/>
  <path d="M20 8 31.5 14.8 20 21.6 8.5 14.8Z" fill="url(#cubeTop)"/>
  <path d="M8.5 14.8V27.5L20 34V21.6Z" fill="url(#cubeLeft)"/>
  <path d="M31.5 14.8V27.5L20 34V21.6Z" fill="url(#cubeRight)"/>
  <path d="M20 14.5 26 18 20 21.5 14 18Z" fill="url(#core)"/>
  <path d="M14 18v6.8l6 3.5v-6.8Z" fill="#9FD0EE"/>
  <path d="M26 18v6.8l-6 3.5v-6.8Z" fill="#C6E7FF"/>
</svg>
