<svg width="16" height="16" viewBox="0 0 16 16" xmlns="http://www.w3.org/2000/svg">
  <defs>
    <linearGradient id="gradleGreen" x1="0%" y1="0%" x2="100%" y2="100%">
      <stop offset="0%" stop-color="#69a83d"/>
      <stop offset="100%" stop-color="#3d6b2b"/>
    </linearGradient>
  </defs>
  <path fill="url(#gradleGreen)" d="M1.5 8a6.5 6.5 0 1 1 6.5 6.5H5.75a.75.75 0 0 1 0-1.5H8a5 5 0 1 0-5-5 .75.75 0 0 1-1.5 0Z"/>
  <path fill="#ffffff" d="M8.1 4.5c1.89 0 3.4 1.37 3.4 3.05 0 .53-.42.95-.95.95H9.2c-.35 0-.5.15-.5.47v.28c0 .41-.34.75-.75.75s-.75-.34-.75-.75V7.9c0-.69.56-1.25 1.25-1.25h.75c-.23-.48-.9-.9-1.8-.9-1.2 0-2.1.84-2.1 1.9 0 1.34.82 2.1 2.4 2.1.41 0 .75.34.75.75s-.34.75-.75.75c-2.29 0-3.9-1.42-3.9-3.6 0-1.83 1.59-3.35 3.95-3.35Z"/>
</svg>
