<svg width="40" height="40" viewBox="0 0 40 40" fill="none" xmlns="http://www.w3.org/2000/svg">
  <defs>
    <linearGradient id="bg" x1="6" y1="4" x2="34" y2="36" gradientUnits="userSpaceOnUse">
      <stop stop-color="#F8FCFF"/>
      <stop offset="1" stop-color="#D8E8FF"/>
    </linearGradient>
    <linearGradient id="edge" x1="4" y1="6" x2="36" y2="34" gradientUnits="userSpaceOnUse">
      <stop stop-color="#12C6FF"/>
      <stop offset="1" stop-color="#2563FF"/>
    </linearGradient>
    <linearGradient id="flow" x1="10" y1="11" x2="31" y2="29" gradientUnits="userSpaceOnUse">
      <stop stop-color="#0EA5E9"/>
      <stop offset="1" stop-color="#1D4ED8"/>
    </linearGradient>
  </defs>
  <path d="M10 4H30L36 10V30L30 36H10L4 30V10L10 4Z" fill="url(#bg)"/>
  <path d="M10 4H30L36 10V30L30 36H10L4 30V10L10 4Z" stroke="url(#edge)" stroke-width="2"/>
  <path d="M12 8H28L32 12V28L28 32H12L8 28V12L12 8Z" stroke="#FDFEFF" stroke-opacity=".92"/>
  <path d="M12 8H16M8 12V16M24 8H28M32 12V16M8 24V28M12 32H16M24 32H28M32 24V28" stroke="#8FC7FF" stroke-width="1.5" stroke-linecap="round"/>
  <path d="M11 20H17M14 12L18 16M14 28L18 24M23 20H29M22 18L28 12M22 22L28 28" stroke="url(#flow)" stroke-width="2.4" stroke-linecap="round" stroke-linejoin="round"/>
  <path d="M20 15.5L24.5 20L20 24.5L15.5 20L20 15.5Z" fill="#0F6DFF" stroke="#DFF6FF" stroke-width="1.2"/>
  <circle cx="10" cy="20" r="2.3" fill="#0EA5E9"/>
  <circle cx="13.5" cy="11.5" r="2.1" fill="#38BDF8"/>
  <circle cx="13.5" cy="28.5" r="2.1" fill="#38BDF8"/>
  <circle cx="30.5" cy="20" r="2.3" fill="#1D4ED8"/>
  <circle cx="28.5" cy="12" r="2.1" fill="#2563FF"/>
  <circle cx="28.5" cy="28" r="2.1" fill="#2563FF"/>
</svg>
