<svg width="40" height="40" viewBox="0 0 40 40" fill="none" xmlns="http://www.w3.org/2000/svg">
    <!-- Gradient definitions -->
    <defs>
        <linearGradient id="gradleGrad" x1="0%" y1="0%" x2="100%" y2="100%">
            <stop offset="0%" style="stop-color:#02303A;stop-opacity:1" />
            <stop offset="100%" style="stop-color:#00D28E;stop-opacity:1" />
        </linearGradient>
        <linearGradient id="starGrad" x1="0%" y1="0%" x2="100%" y2="100%">
            <stop offset="0%" style="stop-color:#FFB800;stop-opacity:1" />
            <stop offset="100%" style="stop-color:#FF8C00;stop-opacity:1" />
        </linearGradient>
    </defs>
    
    <!-- Background rounded rectangle -->
    <rect width="40" height="40" rx="4" fill="url(#gradleGrad)"/>
    
    <!-- Gradle elephant simplified shape -->
    <path d="M12 18 L12 12 Q12 10 14 10 L18 10 Q20 10 20 12 L20 18 Q20 20 18 20 L14 20 Q12 20 12 18 Z" 
          fill="#FFFFFF" opacity="0.9"/>
    <path d="M20 15 L26 15 Q28 15 28 17 L28 22 Q28 24 26 24 L22 24 Q20 24 20 22 Z" 
          fill="#FFFFFF" opacity="0.9"/>
    
    <!-- Star (favorite icon) -->
    <path d="M32 11 L33.5 15 L38 15 L34.5 17.5 L36 22 L32 19 L28 22 L29.5 17.5 L26 15 L30.5 15 Z" 
          fill="url(#starGrad)" stroke="#FFB800" stroke-width="0.5"/>
</svg>
