<svg width="1440" height="900" viewBox="0 0 1440 900" fill="none" xmlns="http://www.w3.org/2000/svg">
  <rect width="1440" height="900" fill="#0B1220"/>
  <rect x="40" y="40" width="1360" height="820" rx="28" fill="#111827"/>
  <rect x="40" y="40" width="1360" height="68" rx="28" fill="#1F2937"/>
  <circle cx="88" cy="74" r="9" fill="#F87171"/>
  <circle cx="118" cy="74" r="9" fill="#FBBF24"/>
  <circle cx="148" cy="74" r="9" fill="#34D399"/>
  <text x="720" y="82" fill="#E5E7EB" font-size="30" text-anchor="middle" font-family="Arial, Helvetica, sans-serif">ide-kit usage overview</text>

  <rect x="76" y="146" width="390" height="656" rx="22" fill="#0F172A" stroke="#334155" stroke-width="2"/>
  <text x="110" y="192" fill="#F8FAFC" font-size="28" font-family="Arial, Helvetica, sans-serif">Project view: hide noisy files</text>
  <text x="110" y="226" fill="#94A3B8" font-size="18" font-family="Arial, Helvetica, sans-serif">Right click a file or directory and hide it from Project + Commit views.</text>
  <rect x="110" y="262" width="322" height="480" rx="16" fill="#111827"/>
  <rect x="128" y="284" width="286" height="42" rx="10" fill="#1E293B"/>
  <text x="148" y="312" fill="#E2E8F0" font-size="20" font-family="Arial, Helvetica, sans-serif">Project</text>
  <rect x="144" y="344" width="220" height="36" rx="8" fill="#0F172A"/>
  <text x="160" y="368" fill="#CBD5E1" font-size="18" font-family="Arial, Helvetica, sans-serif">src</text>
  <rect x="168" y="392" width="180" height="32" rx="8" fill="#0F172A"/>
  <text x="184" y="414" fill="#CBD5E1" font-size="16" font-family="Arial, Helvetica, sans-serif">App.kt</text>
  <rect x="168" y="434" width="180" height="32" rx="8" fill="#7C3AED" fill-opacity="0.18" stroke="#A78BFA"/>
  <text x="184" y="456" fill="#F5F3FF" font-size="16" font-family="Arial, Helvetica, sans-serif">build/generated</text>
  <rect x="198" y="476" width="162" height="30" rx="8" fill="#111827"/>
  <text x="214" y="496" fill="#CBD5E1" font-size="15" font-family="Arial, Helvetica, sans-serif">ApiStub.kt</text>
  <rect x="198" y="514" width="162" height="30" rx="8" fill="#111827"/>
  <text x="214" y="534" fill="#CBD5E1" font-size="15" font-family="Arial, Helvetica, sans-serif">PreviewData.kt</text>
  <rect x="252" y="418" width="150" height="176" rx="14" fill="#F8FAFC"/>
  <rect x="266" y="438" width="122" height="28" rx="8" fill="#E2E8F0"/>
  <text x="279" y="458" fill="#111827" font-size="15" font-family="Arial, Helvetica, sans-serif">Hide from Project</text>
  <rect x="266" y="474" width="122" height="28" rx="8" fill="#F1F5F9"/>
  <text x="279" y="494" fill="#475569" font-size="15" font-family="Arial, Helvetica, sans-serif">Unhide from Project</text>
  <rect x="266" y="510" width="122" height="28" rx="8" fill="#F1F5F9"/>
  <text x="279" y="530" fill="#475569" font-size="15" font-family="Arial, Helvetica, sans-serif">Show Hidden Files</text>
  <path d="M370 452 C432 452 444 452 486 452" stroke="#A78BFA" stroke-width="4" stroke-linecap="round"/>

  <rect x="524" y="146" width="390" height="656" rx="22" fill="#0F172A" stroke="#334155" stroke-width="2"/>
  <text x="558" y="192" fill="#F8FAFC" font-size="28" font-family="Arial, Helvetica, sans-serif">Find in Files: source-only scope</text>
  <text x="558" y="226" fill="#94A3B8" font-size="18" font-family="Arial, Helvetica, sans-serif">Choose the custom scope to skip generated output and search real source roots.</text>
  <rect x="558" y="262" width="322" height="480" rx="16" fill="#111827"/>
  <rect x="582" y="292" width="274" height="48" rx="10" fill="#1E293B"/>
  <text x="600" y="323" fill="#E2E8F0" font-size="20" font-family="Arial, Helvetica, sans-serif">Find in Files</text>
  <rect x="582" y="362" width="274" height="54" rx="10" fill="#0F172A" stroke="#334155"/>
  <text x="600" y="396" fill="#CBD5E1" font-size="18" font-family="Arial, Helvetica, sans-serif">Text to find: ApiClient</text>
  <rect x="582" y="434" width="274" height="54" rx="10" fill="#0F172A" stroke="#A78BFA"/>
  <text x="600" y="468" fill="#F5F3FF" font-size="18" font-family="Arial, Helvetica, sans-serif">Scope: 源码目录</text>
  <rect x="612" y="514" width="214" height="34" rx="10" fill="#22C55E" fill-opacity="0.18"/>
  <text x="628" y="537" fill="#86EFAC" font-size="16" font-family="Arial, Helvetica, sans-serif">include: src, main, test</text>
  <rect x="612" y="560" width="214" height="34" rx="10" fill="#EF4444" fill-opacity="0.18"/>
  <text x="628" y="583" fill="#FCA5A5" font-size="16" font-family="Arial, Helvetica, sans-serif">exclude: build, target, .gradle</text>
  <rect x="582" y="626" width="274" height="78" rx="12" fill="#0F172A"/>
  <text x="600" y="655" fill="#E2E8F0" font-size="17" font-family="Arial, Helvetica, sans-serif">Results</text>
  <text x="600" y="684" fill="#94A3B8" font-size="15" font-family="Arial, Helvetica, sans-serif">src/commonMain/.../ApiClient.kt</text>
  <path d="M740 468 C894 468 934 468 976 468" stroke="#A78BFA" stroke-width="4" stroke-linecap="round"/>

  <rect x="972" y="146" width="390" height="656" rx="22" fill="#0F172A" stroke="#334155" stroke-width="2"/>
  <text x="1006" y="192" fill="#F8FAFC" font-size="28" font-family="Arial, Helvetica, sans-serif">Kotlin: remove redundant types</text>
  <text x="1006" y="226" fill="#94A3B8" font-size="18" font-family="Arial, Helvetica, sans-serif">Use Alt+Enter on a property when Kotlin can infer the same type safely.</text>
  <rect x="1006" y="262" width="322" height="480" rx="16" fill="#111827"/>
  <rect x="1032" y="292" width="270" height="164" rx="12" fill="#0B1220"/>
  <text x="1052" y="328" fill="#F472B6" font-size="18" font-family="Courier New, monospace">val userName: String = "zjarlin"</text>
  <text x="1052" y="366" fill="#F472B6" font-size="18" font-family="Courier New, monospace">val retryCount: Int = 3</text>
  <rect x="1084" y="404" width="170" height="24" rx="8" fill="#F59E0B" fill-opacity="0.22"/>
  <text x="1096" y="421" fill="#FCD34D" font-size="14" font-family="Arial, Helvetica, sans-serif">inspection: redundant type</text>
  <rect x="1080" y="500" width="174" height="62" rx="12" fill="#F8FAFC"/>
  <text x="1098" y="527" fill="#111827" font-size="15" font-family="Arial, Helvetica, sans-serif">Alt+Enter</text>
  <text x="1098" y="552" fill="#111827" font-size="15" font-family="Arial, Helvetica, sans-serif">移除冗余显式类型</text>
  <rect x="1032" y="614" width="270" height="86" rx="12" fill="#0B1220"/>
  <text x="1052" y="649" fill="#34D399" font-size="18" font-family="Courier New, monospace">val userName = "zjarlin"</text>
  <text x="1052" y="685" fill="#34D399" font-size="18" font-family="Courier New, monospace">val retryCount = 3</text>
  <path d="M1168 456 C1168 474 1168 486 1168 494" stroke="#A78BFA" stroke-width="4" stroke-linecap="round"/>
</svg>
