<svg xmlns="http://www.w3.org/2000/svg" width="40" height="40" viewBox="0 0 40 40">
  <defs>
    <linearGradient id="cb-gradient" x1="6" y1="6" x2="34" y2="34" gradientUnits="userSpaceOnUse">
      <stop offset="0" stop-color="#28C3FF"/>
      <stop offset="1" stop-color="#7B61FF"/>
    </linearGradient>
  </defs>
  <rect x="5" y="5" width="30" height="30" rx="8" fill="#1F2430"/>
  <path d="M20 8.5c3.7 0 6.9 1.4 9.3 3.8l-2.1 2.1A10.13 10.13 0 0 0 20 11.4c-4.8 0-8.8 3.4-9.8 8h3.1l-4.7 6.8-4.6-6.8h3c1.1-6.1 6.4-10.9 13-10.9Z" fill="url(#cb-gradient)"/>
  <rect x="10" y="23" width="6" height="6" rx="1.5" fill="#28C3FF"/>
  <rect x="17" y="23" width="6" height="6" rx="1.5" fill="#F4F7FB"/>
  <rect x="24" y="23" width="6" height="6" rx="1.5" fill="#7B61FF"/>
  <path d="M13 23v-3.2h14V23" fill="none" stroke="#F4F7FB" stroke-width="1.6" stroke-linecap="round" stroke-linejoin="round" opacity=".92"/>
</svg>
